<mxfile host="app.diagrams.net" modified="2024-03-05T11:15:12.756Z" agent="Mozilla/5.0 (Windows NT 10.0; Win64; x64) AppleWebKit/537.36 (KHTML, like Gecko) Chrome/122.0.0.0 Safari/537.36" etag="Fs65kfd2xnQQvLJ-8KJw" version="23.1.7" type="device">
  <diagram name="Страница — 1" id="WC0CIbJ5sFVoHxLQnLTI">
    <mxGraphModel dx="842" dy="485" grid="1" gridSize="10" guides="1" tooltips="1" connect="1" arrows="1" fold="1" page="1" pageScale="1" pageWidth="1169" pageHeight="827" math="0" shadow="0">
      <root>
        <mxCell id="0" />
        <mxCell id="1" parent="0" />
        <mxCell id="JsC0bq5SJbLZ164jeJVw-1" value="Заказ книги" style="shape=umlLifeline;perimeter=lifelinePerimeter;whiteSpace=wrap;html=1;container=1;dropTarget=0;collapsible=0;recursiveResize=0;outlineConnect=0;portConstraint=eastwest;newEdgeStyle={&quot;curved&quot;:0,&quot;rounded&quot;:0};" vertex="1" parent="1">
          <mxGeometry x="240" y="120" width="100" height="400" as="geometry" />
        </mxCell>
        <mxCell id="JsC0bq5SJbLZ164jeJVw-2" value="" style="shape=umlLifeline;perimeter=lifelinePerimeter;whiteSpace=wrap;html=1;container=1;dropTarget=0;collapsible=0;recursiveResize=0;outlineConnect=0;portConstraint=eastwest;newEdgeStyle={&quot;curved&quot;:0,&quot;rounded&quot;:0};participant=umlActor;" vertex="1" parent="1">
          <mxGeometry x="120" y="120" width="20" height="400" as="geometry" />
        </mxCell>
        <mxCell id="JsC0bq5SJbLZ164jeJVw-3" value="Библиотечный фонд" style="shape=umlLifeline;perimeter=lifelinePerimeter;whiteSpace=wrap;html=1;container=1;dropTarget=0;collapsible=0;recursiveResize=0;outlineConnect=0;portConstraint=eastwest;newEdgeStyle={&quot;curved&quot;:0,&quot;rounded&quot;:0};" vertex="1" parent="1">
          <mxGeometry x="420" y="120" width="100" height="400" as="geometry" />
        </mxCell>
        <mxCell id="JsC0bq5SJbLZ164jeJVw-15" value="" style="rounded=0;whiteSpace=wrap;html=1;" vertex="1" parent="1">
          <mxGeometry x="465" y="190" width="10" height="250" as="geometry" />
        </mxCell>
        <mxCell id="JsC0bq5SJbLZ164jeJVw-16" value="" style="rounded=0;whiteSpace=wrap;html=1;" vertex="1" parent="1">
          <mxGeometry x="285" y="220" width="10" height="220" as="geometry" />
        </mxCell>
        <mxCell id="JsC0bq5SJbLZ164jeJVw-17" value="" style="rounded=0;whiteSpace=wrap;html=1;" vertex="1" parent="1">
          <mxGeometry x="125" y="190" width="10" height="250" as="geometry" />
        </mxCell>
        <mxCell id="JsC0bq5SJbLZ164jeJVw-5" value="Список книг" style="html=1;verticalAlign=bottom;endArrow=open;endSize=8;curved=0;rounded=0;" edge="1" parent="1" source="JsC0bq5SJbLZ164jeJVw-3">
          <mxGeometry relative="1" as="geometry">
            <mxPoint x="400.33" y="200" as="sourcePoint" />
            <mxPoint x="130" y="200" as="targetPoint" />
          </mxGeometry>
        </mxCell>
        <mxCell id="JsC0bq5SJbLZ164jeJVw-6" value="Выбранные книги" style="html=1;verticalAlign=bottom;endArrow=block;curved=0;rounded=0;" edge="1" parent="1" target="JsC0bq5SJbLZ164jeJVw-1">
          <mxGeometry width="80" relative="1" as="geometry">
            <mxPoint x="130" y="240" as="sourcePoint" />
            <mxPoint x="250" y="240" as="targetPoint" />
          </mxGeometry>
        </mxCell>
        <mxCell id="JsC0bq5SJbLZ164jeJVw-7" value="Запросить наличие книг" style="html=1;verticalAlign=bottom;endArrow=block;curved=0;rounded=0;" edge="1" parent="1" target="JsC0bq5SJbLZ164jeJVw-3">
          <mxGeometry width="80" relative="1" as="geometry">
            <mxPoint x="290" y="280" as="sourcePoint" />
            <mxPoint x="450" y="280" as="targetPoint" />
          </mxGeometry>
        </mxCell>
        <mxCell id="JsC0bq5SJbLZ164jeJVw-20" value="" style="curved=1;endArrow=classic;html=1;rounded=0;fontSize=12;startSize=8;endSize=8;" edge="1" parent="1" source="JsC0bq5SJbLZ164jeJVw-1">
          <mxGeometry width="50" height="50" relative="1" as="geometry">
            <mxPoint x="295.00222222222226" y="350" as="sourcePoint" />
            <mxPoint x="290" y="380" as="targetPoint" />
            <Array as="points">
              <mxPoint x="330" y="350" />
              <mxPoint x="330" y="380" />
            </Array>
          </mxGeometry>
        </mxCell>
        <mxCell id="JsC0bq5SJbLZ164jeJVw-21" value="Заказ с книгами в наличии" style="edgeLabel;html=1;align=center;verticalAlign=middle;resizable=0;points=[];fontSize=11;" vertex="1" connectable="0" parent="JsC0bq5SJbLZ164jeJVw-20">
          <mxGeometry relative="1" as="geometry">
            <mxPoint x="50" as="offset" />
          </mxGeometry>
        </mxCell>
        <mxCell id="JsC0bq5SJbLZ164jeJVw-22" value="" style="endArrow=none;dashed=1;html=1;rounded=0;fontSize=12;startArrow=classic;startFill=1;" edge="1" parent="1" source="JsC0bq5SJbLZ164jeJVw-1" target="JsC0bq5SJbLZ164jeJVw-3">
          <mxGeometry width="50" height="50" relative="1" as="geometry">
            <mxPoint x="370" y="370" as="sourcePoint" />
            <mxPoint x="420" y="320" as="targetPoint" />
          </mxGeometry>
        </mxCell>
        <mxCell id="JsC0bq5SJbLZ164jeJVw-23" value="Информация о наличии книг" style="edgeLabel;html=1;align=center;verticalAlign=middle;resizable=0;points=[];fontSize=11;" vertex="1" connectable="0" parent="JsC0bq5SJbLZ164jeJVw-22">
          <mxGeometry x="-0.3604" y="1" relative="1" as="geometry">
            <mxPoint x="33" y="-9" as="offset" />
          </mxGeometry>
        </mxCell>
        <mxCell id="JsC0bq5SJbLZ164jeJVw-24" value="Информация о заказе" style="html=1;verticalAlign=bottom;endArrow=open;endSize=8;curved=0;rounded=0;" edge="1" parent="1">
          <mxGeometry relative="1" as="geometry">
            <mxPoint x="289.5" y="420" as="sourcePoint" />
            <mxPoint x="129.92857142857144" y="420" as="targetPoint" />
          </mxGeometry>
        </mxCell>
        <mxCell id="JsC0bq5SJbLZ164jeJVw-25" value="Изменение остатка книг" style="html=1;verticalAlign=bottom;endArrow=block;curved=0;rounded=0;" edge="1" parent="1" source="JsC0bq5SJbLZ164jeJVw-1">
          <mxGeometry width="80" relative="1" as="geometry">
            <mxPoint x="295" y="420" as="sourcePoint" />
            <mxPoint x="470" y="420" as="targetPoint" />
          </mxGeometry>
        </mxCell>
      </root>
    </mxGraphModel>
  </diagram>
</mxfile>
